HIERARCHY
ROOT SpineBase
{
  OFFSET 0.000000 0.000000 0.000000
  CHANNELS 6 Xposition Yposition Zposition Zrotation Xrotation Yrotation
  JOINT SpineMid
  {
    OFFSET 0.000000 24.858331 0.000000
    CHANNELS 3 Zrotation Xrotation Yrotation
    JOINT SpineShoulder
    {
      OFFSET 0.645158 18.903549 -0.210001
      CHANNELS 3 Zrotation Xrotation Yrotation
      JOINT Neck
      {
        OFFSET 0.519115 6.385482 -0.159935
        CHANNELS 3 Zrotation Xrotation Yrotation
        JOINT Head
        {
          OFFSET 3.909327 -2.655436 14.010687
          CHANNELS 3 Zrotation Xrotation Yrotation
          End Site
          {
            OFFSET 0 0 0
          }
        }
      }
      JOINT ShoulderLeft
      {
        OFFSET -8.597977 13.159497 -7.921167
        CHANNELS 3 Zrotation Xrotation Yrotation
        JOINT ElbowLeft
        {
          OFFSET 16.549267 -8.590490 11.846138
          CHANNELS 3 Zrotation Xrotation Yrotation
          JOINT WristLeft
          {
            OFFSET 8.576939 20.170064 -19.742572
            CHANNELS 3 Zrotation Xrotation Yrotation
            JOINT HandLeft
            {
              OFFSET 2.503354 5.927901 -13.717012
              CHANNELS 3 Zrotation Xrotation Yrotation
              JOINT HandTipLeft
              {
                OFFSET 3.833297 4.169829 -5.400324
                CHANNELS 3 Zrotation Xrotation Yrotation
                End Site
                {
                  OFFSET 0 0 0
                }
              }
              JOINT ThumbLeft
              {
                OFFSET 3.630932 7.134810 4.324061
                CHANNELS 3 Zrotation Xrotation Yrotation
                End Site
                {
                  OFFSET 0 0 0
                }
              }
            }
          }
        }
      }
      JOINT ShoulderRight
      {
        OFFSET -1.676139 -1.574550 -27.388546
        CHANNELS 3 Zrotation Xrotation Yrotation
        JOINT ElbowRight
        {
          OFFSET 18.714457 -7.687377 21.493175
          CHANNELS 3 Zrotation Xrotation Yrotation
          JOINT WristRight
          {
            OFFSET -7.027706 17.546183 15.291825
            CHANNELS 3 Zrotation Xrotation Yrotation
            JOINT HandRight
            {
              OFFSET -0.051664 2.583170 3.174738
              CHANNELS 3 Zrotation Xrotation Yrotation
              JOINT HandTipRight
              {
                OFFSET 1.070131 2.907880 4.819026
                CHANNELS 3 Zrotation Xrotation Yrotation
                End Site
                {
                  OFFSET 0 0 0
                }
              }
              JOINT ThumbRight
              {
                OFFSET -1.593811 2.212790 -3.525673
                CHANNELS 3 Zrotation Xrotation Yrotation
                End Site
                {
                  OFFSET 0 0 0
                }
              }
            }
          }
        }
      }
    }
  }
  JOINT HipLeft
  {
    OFFSET -0.383328 2.171545 4.197830
    CHANNELS 3 Zrotation Xrotation Yrotation
    JOINT KneeLeft
    {
      OFFSET -20.294331 -12.378300 -22.505923
      CHANNELS 3 Zrotation Xrotation Yrotation
      JOINT AnkleLeft
      {
        OFFSET -23.823629 17.150067 -10.566456
        CHANNELS 3 Zrotation Xrotation Yrotation
        JOINT FootLeft
        {
          OFFSET 11.690105 5.146779 -9.676060
          CHANNELS 3 Zrotation Xrotation Yrotation
          End Site
          {
            OFFSET 0 0 0
          }
        }
      }
    }
  }
  JOINT HipRight
  {
    OFFSET 6.378429 1.196977 -5.515384
    CHANNELS 3 Zrotation Xrotation Yrotation
    JOINT KneeRight
    {
      OFFSET -27.774998 -23.423319 -11.979170
      CHANNELS 3 Zrotation Xrotation Yrotation
      JOINT AnkleRight
      {
        OFFSET -27.487150 13.655615 -4.022143
        CHANNELS 3 Zrotation Xrotation Yrotation
        JOINT FootRight
        {
          OFFSET 3.386938 14.208878 -4.055632
          CHANNELS 3 Zrotation Xrotation Yrotation
          End Site
          {
            OFFSET 0 0 0
          }
        }
      }
    }
  }
}
MOTION
Frames: 5
Frame Time: 0.033333
-288.387240 22.054861 68.327859 0.033176 -0.378879 56.270757 0.296683 0.237971 -56.271263 -0.000000 0.000000 0.000000 0.209785 -1.566069 -1.112690 0.000000 0.000000 0.000000 -0.000000 0.000000 0.000000 0.495115 -0.831217 0.837260 0.440674 -0.263266 1.750643 -3.829820 -1.519021 -3.627352 0.000000 0.000000 0.000000 0.000000 0.000000 0.000000 0.336323 -0.734604 -0.825186 0.433868 -0.864724 -0.485482 -1.175405 -0.194538 1.824404 -3.025139 0.006535 6.018266 0.000000 0.000000 0.000000 0.000000 0.000000 0.000000 0.296683 0.237971 -56.271263 -0.000000 0.000000 0.000000 -0.000000 0.000000 0.000000 0.000000 0.000000 0.000000 0.296683 0.237971 -56.271263 -0.000000 0.000000 0.000000 -0.000000 0.000000 0.000000 0.000000 0.000000 0.000000
-288.347074 22.181672 68.331578 0.093579 -0.357133 55.159202 0.239654 0.280833 -55.159498 -0.000000 0.000000 0.000000 0.177809 -1.403671 -1.055577 0.000000 0.000000 0.000000 -0.000000 0.000000 0.000000 0.499503 -0.817026 0.835614 0.414326 -0.280589 1.704361 -3.117412 -4.385909 -0.211721 0.000000 0.000000 0.000000 0.000000 0.000000 0.000000 0.314453 -0.689566 -0.779322 0.445931 -0.890125 -0.514939 -0.940557 0.290240 1.518215 -2.791446 -0.452204 5.469063 0.000000 0.000000 0.000000 0.000000 0.000000 0.000000 0.239654 0.280833 -55.159498 -0.000000 0.000000 0.000000 -0.000000 0.000000 0.000000 0.000000 0.000000 0.000000 0.239654 0.280833 -55.159498 -0.000000 0.000000 0.000000 -0.000000 0.000000 0.000000 0.000000 0.000000 0.000000
-288.351216 22.223662 68.348061 0.152722 -0.390017 55.362872 0.234092 0.347331 -55.363062 -0.000000 0.000000 0.000000 0.132136 -1.125879 -0.910334 0.000000 0.000000 0.000000 -0.000000 0.000000 0.000000 0.497769 -0.812161 0.831863 0.321295 -0.112801 1.422491 -2.487873 -5.297571 1.310917 0.000000 0.000000 0.000000 0.000000 0.000000 0.000000 0.272305 -0.600076 -0.684113 0.423788 -0.844717 -0.500253 -1.239585 0.299242 1.863758 -2.555538 -0.663353 5.239966 0.000000 0.000000 0.000000 0.000000 0.000000 0.000000 0.234092 0.347331 -55.363062 -0.000000 0.000000 0.000000 -0.000000 0.000000 0.000000 0.000000 0.000000 0.000000 0.234092 0.347331 -55.363062 -0.000000 0.000000 0.000000 -0.000000 0.000000 0.000000 0.000000 0.000000 0.000000
-288.385381 22.235465 68.361869 0.225997 -0.452475 55.912966 0.248075 0.440757 -55.913027 -0.000000 0.000000 0.000000 0.070703 -0.744070 -0.697394 0.000000 0.000000 0.000000 -0.000000 0.000000 0.000000 0.486054 -0.819526 0.823432 0.147684 -0.092375 1.003746 -3.197666 -7.312180 2.219985 0.000000 0.000000 0.000000 0.000000 0.000000 0.000000 -0.000000 0.000000 0.000000 0.571201 -1.197619 -0.978477 -1.005439 0.157688 1.511019 -3.015910 -0.026893 5.642833 0.000000 0.000000 0.000000 0.000000 0.000000 0.000000 0.379689 1.228648 -55.767772 0.577376 -0.552030 -0.144391 -0.000000 0.000000 0.000000 0.000000 0.000000 0.000000 0.248075 0.440757 -55.913027 -0.000000 0.000000 0.000000 -0.000000 0.000000 0.000000 0.000000 0.000000 0.000000
-288.390670 22.213083 68.374935 0.244547 -0.480337 56.388411 0.264660 0.469555 -56.388471 -0.000000 0.000000 0.000000 0.039560 -0.554791 -0.592409 0.000000 0.000000 0.000000 -0.000000 0.000000 0.000000 0.465103 -0.833025 0.808492 0.147226 0.211799 0.847052 -3.741493 -7.330419 1.441109 0.000000 0.000000 0.000000 0.000000 0.000000 0.000000 -0.000000 0.000000 0.000000 0.528845 -1.104631 -0.904157 -1.415725 0.208288 2.003020 -2.367151 -0.118961 4.723265 0.000000 0.000000 0.000000 0.000000 0.000000 0.000000 0.370780 1.392354 -56.087973 0.706644 -0.602901 -0.298504 -0.000000 0.000000 0.000000 0.000000 0.000000 0.000000 0.412428 1.317552 -56.770491 0.628377 -0.588289 0.382942 -0.000000 0.000000 0.000000 0.000000 0.000000 0.000000
